<?xml version="1.0" encoding="utf-8"?>
<!-- Generator: Adobe Illustrator 14.0.0, SVG Export Plug-In . SVG Version: 6.00 Build 43363)  -->
<!DOCTYPE svg PUBLIC "-//W3C//DTD SVG 1.1//EN" "http://www.w3.org/Graphics/SVG/1.1/DTD/svg11.dtd">
<svg version="1.1" id="Layer_1" xmlns="http://www.w3.org/2000/svg" xmlns:xlink="http://www.w3.org/1999/xlink" x="0px" y="0px"
	 width="1024px" height="1024px" viewBox="0 0 1024 1024" enable-background="new 0 0 1024 1024" xml:space="preserve">
<g id="XMLID_2_">
	<g>
		<path fill="#FEA408" d="M378.86,1024H74.78c0-530.13,85.34-959.1,190.81-959.1C328.2,64.9,378.86,493.87,378.86,1024z"/>
	</g>
	<g>
		<path fill="none" stroke="#000000" stroke-width="2" d="M74.78,1024c0-530.13,85.34-959.1,190.81-959.1"/>
		<path fill="none" stroke="#000000" stroke-width="2" d="M378.86,1024c0-530.13-50.66-959.1-113.27-959.1"/>
	</g>
</g>
<g id="XMLID_1_">
	<g>
		<path fill="#FFFFFF" d="M357.43,1024H110.49c0-510.95,65.26-924.41,145.92-924.41C312.25,99.59,357.43,513.05,357.43,1024z"/>
	</g>
	<g>
		<path fill="none" stroke="#000000" stroke-width="2" d="M110.49,1024c0-510.95,65.26-924.41,145.92-924.41"/>
		<path fill="none" stroke="#000000" stroke-width="2" d="M357.43,1024c0-510.95-45.18-924.41-101.02-924.41"/>
	</g>
</g>
<g id="XMLID_4_">
	<g>
		<path fill="#FEA408" d="M996.2,1024H678.86c0-523.36,45.64-946.86,102.04-946.86C899.91,77.14,996.2,500.64,996.2,1024z"/>
	</g>
	<g>
		<path fill="none" stroke="#000000" stroke-width="2" d="M678.86,1024c0-523.36,45.64-946.86,102.04-946.86"/>
		<path fill="none" stroke="#000000" stroke-width="2" d="M996.2,1024c0-523.36-96.29-946.86-215.3-946.86"/>
	</g>
</g>
<g id="XMLID_3_">
	<g>
		<path fill="#FFFFFF" d="M971.71,1024H707.43c0-504.75,35.601-913.18,79.59-913.18C889.11,110.82,971.71,519.25,971.71,1024z"/>
	</g>
	<g>
		<path fill="none" stroke="#000000" stroke-width="2" d="M971.71,1024c0-504.75-82.6-913.18-184.69-913.18"/>
		<path fill="none" stroke="#000000" stroke-width="2" d="M707.43,1024c0-504.75,35.601-913.18,79.59-913.18"/>
	</g>
</g>
</svg>
